HIERARCHY
ROOT Hips
{
	OFFSET 0.000000 0.000000 0.000000
	CHANNELS 6 Xposition Yposition Zposition Zrotation Yrotation Xrotation 
	JOINT LowerBack
	{
		OFFSET 0.000000 0.000000 0.000000
		CHANNELS 3 Zrotation Yrotation Xrotation
		JOINT Spine
		{
			OFFSET 0.028270 2.035590 -0.193380
			CHANNELS 3 Zrotation Yrotation Xrotation
			JOINT Spine1
			{
				OFFSET 0.056720 2.048850 -0.042750
				CHANNELS 3 Zrotation Yrotation Xrotation
				JOINT Neck
				{
					OFFSET 0.000000 0.000000 0.000000
					CHANNELS 3 Zrotation Yrotation Xrotation
					JOINT Neck1
					{
						OFFSET -0.054170 1.746240 0.172020
						CHANNELS 3 Zrotation Yrotation Xrotation
						JOINT Head
						{
							OFFSET 0.104070 1.761360 -0.123970
							CHANNELS 3 Zrotation Yrotation Xrotation
							End Site
							{
								OFFSET 0.000000 0.000000 0.000000
							}
						}
					}
				}
				JOINT LeftShoulder
				{
					OFFSET 0.000000 0.000000 0.000000
					CHANNELS 3 Zrotation Yrotation Xrotation
					JOINT LeftArm
					{
						OFFSET 3.362410 1.200890 -0.311210
						CHANNELS 3 Zrotation Yrotation Xrotation
						JOINT LeftForeArm
						{
							OFFSET 4.983000 -0.000000 -0.000000
							CHANNELS 3 Zrotation Yrotation Xrotation
							JOINT LeftHand
							{
								OFFSET 3.483560 -0.000000 -0.000000
								CHANNELS 3 Zrotation Yrotation Xrotation
								JOINT LeftFingerBase
								{
									OFFSET 0.000000 0.000000 0.000000
									CHANNELS 3 Zrotation Yrotation Xrotation
									JOINT LeftHandIndex1
									{
										OFFSET 0.715260 -0.000000 -0.000000
										CHANNELS 3 Zrotation Yrotation Xrotation
										End Site
										{
											OFFSET 0.000000 0.000000 0.000000
										}
									}
								}
								JOINT LThumb
								{
									OFFSET 0.000000 0.000000 0.000000
									CHANNELS 3 Zrotation Yrotation Xrotation
									End Site
									{
										OFFSET 0.000000 0.000000 0.000000
									}
								}
							}
						}
					}
				}
				JOINT RightShoulder
				{
					OFFSET 0.000000 0.000000 0.000000
					CHANNELS 3 Zrotation Yrotation Xrotation
					JOINT RightArm
					{
						OFFSET -3.136600 1.374050 -0.404650
						CHANNELS 3 Zrotation Yrotation Xrotation
						JOINT RightForeArm
						{
							OFFSET -5.241900 -0.000000 -0.000000
							CHANNELS 3 Zrotation Yrotation Xrotation
							JOINT RightHand
							{
								OFFSET -3.444170 -0.000000 -0.000000
								CHANNELS 3 Zrotation Yrotation Xrotation
								JOINT RightFingerBase
								{
									OFFSET 0.000000 0.000000 0.000000
									CHANNELS 3 Zrotation Yrotation Xrotation
									JOINT RightHandIndex1
									{
										OFFSET -0.622530 -0.000000 -0.000000
										CHANNELS 3 Zrotation Yrotation Xrotation
										End Site
										{
											OFFSET 0.000000 0.000000 0.000000
										}
									}
								}
								JOINT RThumb
								{
									OFFSET 0.000000 0.000000 0.000000
									CHANNELS 3 Zrotation Yrotation Xrotation
									End Site
									{
										OFFSET 0.000000 0.000000 0.000000
									}
								}
							}
						}
					}
				}
			}
		}
	}
}
}
MOTION
Frames: 17
Frame Time: 0.008333
-8.988688 16.659676 -2.315860 73.726913 85.150205 98.643593 -4.333677 1.334188 5.892885 -1.939928 1.547814 -1.721654 -6.415477 1.504598 0.871212 9.244506 4.200032 3.382164 -3.993436 -0.374305 2.488981 0.000000 0.000000 0.000000 -8.846631 2.735029 1.946738 -57.465734 -10.035204 8.969194 -3.929074 -11.968697 -0.004379 3.891963 2.131277 0.073830 -0.096816 0.018253 0.000000 0.000000 0.000000 0.000000 0.000000 0.000000 0.000000 15.701028 4.067116 -1.730589 70.347344 21.785430 1.747853 1.256021 48.241308 -0.015401 -5.217913 12.919869 -0.606874 0.032230 -0.264588 0.000000 0.000000 0.000000 0.000000 0.000000 0.000000 0.000000 
-8.805014 16.645724 -2.292199 68.325877 84.501099 93.042048 -4.904049 1.409238 6.135679 -2.063254 1.642424 -1.683564 -6.435611 1.597347 0.852615 9.100791 4.584100 3.563856 -4.035030 -0.377176 2.521791 0.000000 0.000000 0.000000 -9.097601 2.574556 1.929095 -57.542726 -11.188493 8.633342 -3.939645 -11.133019 -0.004740 4.151250 2.119981 0.077926 -0.093835 0.023754 0.000000 0.000000 0.000000 0.000000 0.000000 0.000000 0.000000 15.787018 4.325944 -1.710971 70.800972 21.251801 0.316010 1.228015 46.297660 -0.017929 -6.338044 12.866255 -0.734092 0.039610 -0.256074 0.000000 0.000000 0.000000 0.000000 0.000000 0.000000 0.000000 
-8.626128 16.639332 -2.270741 63.618167 83.845078 88.139865 -5.381322 1.484388 6.394367 -2.165619 1.734642 -1.635262 -6.446027 1.688162 0.851380 8.898734 4.975713 3.751074 -4.075102 -0.379794 2.554930 0.000000 0.000000 0.000000 -9.333402 2.452656 1.903328 -57.751420 -12.446421 8.184966 -3.932242 -10.309206 -0.005144 4.513569 2.060348 0.081822 -0.090120 0.029820 0.000000 0.000000 0.000000 0.000000 0.000000 0.000000 0.000000 15.816271 4.585817 -1.690086 71.237694 20.777336 -1.075818 1.195676 44.283434 -0.020322 -7.533299 12.717511 -0.862413 0.047700 -0.247035 0.000000 0.000000 0.000000 0.000000 0.000000 0.000000 0.000000 
-8.451362 16.639969 -2.251779 59.534864 83.199599 83.869431 -5.756534 1.553652 6.662059 -2.245623 1.818647 -1.578017 -6.449044 1.771265 0.866905 8.651491 5.359281 3.938219 -4.114379 -0.382166 2.587401 0.000000 0.000000 0.000000 -9.533471 2.362403 1.869969 -58.105528 -13.778676 7.633598 -3.905103 -9.535125 -0.005624 4.981438 1.948043 0.084816 -0.085754 0.036215 0.000000 0.000000 0.000000 0.000000 0.000000 0.000000 0.000000 15.804304 4.832544 -1.665978 71.639519 20.352228 -2.392608 1.164135 42.240549 -0.022384 -8.738618 12.475064 -0.981435 0.056187 -0.237633 0.000000 0.000000 0.000000 0.000000 0.000000 0.000000 0.000000 
-8.279957 16.647021 -2.235735 55.981427 82.589763 80.139595 -6.015113 1.611168 6.931268 -2.300772 1.888568 -1.512820 -6.447888 1.840851 0.900503 8.372574 5.717399 4.116180 -4.153645 -0.384262 2.617307 0.000000 0.000000 0.000000 -9.690090 2.314389 1.829376 -58.606811 -15.172346 7.034850 -3.858498 -8.852410 -0.006224 5.544781 1.785322 0.085813 -0.081012 0.042702 0.000000 0.000000 0.000000 0.000000 0.000000 0.000000 0.000000 15.767019 5.050880 -1.638845 71.988986 19.967868 -3.594736 1.139831 40.210175 -0.023931 -9.881026 12.150437 -1.081055 0.064769 -0.228025 0.000000 0.000000 0.000000 0.000000 0.000000 0.000000 0.000000 
-8.111118 16.659767 -2.222151 52.899172 82.022053 76.893140 -6.169038 1.652538 7.195173 -2.334077 1.940625 -1.442961 -6.444900 1.892986 0.944973 8.083132 6.041230 4.284969 -4.193805 -0.386175 2.645162 0.000000 0.000000 0.000000 -9.779826 2.279517 1.783625 -59.255485 -16.562517 6.410619 -3.794295 -8.325514 -0.006954 6.180654 1.575999 0.083708 -0.076238 0.048990 0.000000 0.000000 0.000000 0.000000 0.000000 0.000000 0.000000 15.728444 5.234022 -1.606370 72.273687 19.596500 -4.659678 1.127900 38.241578 -0.024828 -10.878812 11.756438 -1.151874 0.072967 -0.218373 0.000000 0.000000 0.000000 0.000000 0.000000 0.000000 0.000000 
-7.944046 16.677557 -2.210909 50.208081 81.516690 74.056671 -6.214845 1.674220 7.446421 -2.345154 1.971335 -1.370221 -6.442831 1.924177 0.999715 7.799139 6.315117 4.437050 -4.235452 -0.387891 2.669471 0.000000 0.000000 0.000000 -9.802804 2.264118 1.733108 -60.035755 -17.930773 5.852452 -3.717060 -8.004268 -0.007819 6.855400 1.332700 0.077505 -0.071987 0.054903 0.000000 0.000000 0.000000 0.000000 0.000000 0.000000 0.000000 15.706467 5.368489 -1.569628 72.481580 19.226644 -5.551682 1.133793 36.369282 -0.024975 -11.664484 11.316338 -1.189188 0.080473 -0.208777 0.000000 0.000000 0.000000 0.000000 0.000000 0.000000 0.000000 
-7.778165 16.699794 -2.201267 47.866459 81.078931 71.592121 -6.167144 1.673813 7.679320 -2.337130 1.978679 -1.297402 -6.443154 1.932307 1.059684 7.538784 6.527029 4.570333 -4.279209 -0.389473 2.690150 0.000000 0.000000 0.000000 -9.751535 2.249009 1.678796 -60.928565 -19.230013 5.425819 -3.632580 -7.948404 -0.008789 7.528974 1.072410 0.067402 -0.068803 0.060330 0.000000 0.000000 0.000000 0.000000 0.000000 0.000000 0.000000 15.721589 5.443294 -1.527913 72.605308 18.844312 -6.242287 1.160797 34.621794 -0.024328 -12.181684 10.851573 -1.191099 0.086937 -0.199278 0.000000 0.000000 0.000000 0.000000 0.000000 0.000000 0.000000 
-7.612999 16.725952 -2.192334 45.845426 80.711418 69.474599 -6.042578 1.649984 7.889909 -2.313281 1.961581 -1.227377 -6.446679 1.916189 1.118878 7.318367 6.679514 4.685999 -4.324480 -0.390938 2.707913 0.000000 0.000000 0.000000 -9.626682 2.221653 1.622338 -61.905402 -20.427751 5.199003 -3.548011 -8.200375 -0.009816 8.157346 0.813278 0.054004 -0.067218 0.065315 0.000000 0.000000 0.000000 0.000000 0.000000 0.000000 0.000000 15.786993 5.462528 -1.481242 72.643281 18.424958 -6.731322 1.209549 33.032443 -0.022901 -12.381156 10.377629 -1.157705 0.091903 -0.189867 0.000000 0.000000 0.000000 0.000000 0.000000 0.000000 0.000000 
-7.448278 16.755678 -2.183258 44.121014 80.415398 67.682399 -5.855497 1.602252 8.076355 -2.276246 1.919632 -1.162147 -6.453593 1.875358 1.173273 7.148587 6.769705 4.783786 -4.370692 -0.392299 2.723062 0.000000 0.000000 0.000000 -9.436305 2.168662 1.564709 -62.929193 -21.497778 5.235818 -3.469757 -8.795964 -0.010852 8.703328 0.576323 0.039011 -0.067620 0.069977 0.000000 0.000000 0.000000 0.000000 0.000000 0.000000 0.000000 15.910417 5.423516 -1.429090 72.596575 17.962279 -7.011694 1.279995 31.610424 -0.020749 -12.241369 9.912062 -1.093209 0.095079 -0.180486 0.000000 0.000000 0.000000 0.000000 0.000000 0.000000 0.000000 
-7.283921 16.788653 -2.173173 42.676855 80.188463 66.199836 -5.620777 1.530852 8.238840 -2.228734 1.853074 -1.103239 -6.463753 1.810013 1.219248 7.035698 6.801149 4.864920 -4.416682 -0.393542 2.736189 0.000000 0.000000 0.000000 -9.193543 2.078995 1.507303 -63.955635 -22.425244 5.578459 -3.402900 -9.753507 -0.011853 9.139718 0.378836 0.024725 -0.070214 0.074506 0.000000 0.000000 0.000000 0.000000 0.000000 0.000000 0.000000 16.092237 5.329838 -1.370784 72.470964 17.451480 -7.095011 1.370662 30.357703 -0.017977 -11.757075 9.467647 -1.002608 0.096195 -0.171063 0.000000 0.000000 0.000000 0.000000 0.000000 0.000000 0.000000 
-7.119912 16.824754 -2.161427 41.496888 80.025720 65.009379 -5.349413 1.436176 8.380278 -2.172821 1.762182 -1.050598 -6.478324 1.720510 1.257352 6.982236 6.789608 4.928568 -4.460442 -0.394558 2.747084 0.000000 0.000000 0.000000 -8.929052 1.977273 1.452283 -64.932074 -23.253343 6.260560 -3.353103 -11.037730 -0.012791 9.445102 0.217827 0.011750 -0.075113 0.079212 0.000000 0.000000 0.000000 0.000000 0.000000 0.000000 0.000000 16.325774 5.199088 -1.308280 72.279101 16.883285 -7.031310 1.478553 29.282170 -0.014735 -10.929361 9.043980 -0.889906 0.094946 -0.161514 0.000000 0.000000 0.000000 0.000000 0.000000 0.000000 0.000000 
-6.956421 16.863727 -2.147404 40.563092 79.919128 64.091196 -5.054373 1.321012 8.500361 -2.110569 1.649744 -1.007064 -6.492767 1.609316 1.277654 6.979767 6.718766 4.982694 -4.501620 -0.395514 2.758368 0.000000 0.000000 0.000000 -8.625597 1.770012 1.400075 -65.823779 -23.868096 7.205093 -3.312909 -12.724389 -0.013682 9.639288 0.116573 0.003085 -0.081816 0.084069 0.000000 0.000000 0.000000 0.000000 0.000000 0.000000 0.000000 16.597156 5.009978 -1.232905 72.028478 16.291357 -6.781508 1.602865 28.317304 -0.011229 -9.833607 8.674610 -0.767604 0.091725 -0.151933 -0.000000 0.000000 0.000000 0.000000 0.000000 0.000000 0.000000 
-6.793484 16.905555 -2.130940 39.850804 79.861909 63.415889 -4.737422 1.186073 8.605456 -2.042591 1.516213 -0.969732 -6.510554 1.477168 1.288518 7.024252 6.620206 5.022188 -4.537446 -0.396159 2.768210 0.000000 0.000000 0.000000 -8.336187 1.542020 1.353459 -66.579266 -24.409715 8.399931 -3.287676 -14.680795 -0.014495 9.711731 0.026144 -0.005070 -0.090262 0.089553 0.000000 0.000000 0.000000 0.000000 0.000000 0.000000 0.000000 16.890164 4.798824 -1.151210 71.739869 15.659266 -6.454113 1.738590 27.482715 -0.007661 -8.484184 8.330633 -0.635702 0.086352 -0.142234 -0.000000 0.000000 0.000000 0.000000 0.000000 0.000000 0.000000 
-6.631196 16.950037 -2.111930 39.330462 79.845296 62.949878 -4.402519 1.034282 8.697330 -1.969492 1.364432 -0.938753 -6.529409 1.326807 1.288127 7.103174 6.493496 5.050107 -4.566847 -0.396514 2.777431 0.000000 0.000000 0.000000 -8.062737 1.267048 1.312835 -67.177625 -24.865202 9.741855 -3.271252 -16.884621 -0.015224 9.685378 -0.073802 -0.014111 -0.099901 0.095824 0.000000 0.000000 0.000000 0.000000 0.000000 0.000000 0.000000 17.184481 4.563829 -1.060180 71.426720 15.006276 -6.064848 1.882758 26.735811 -0.004251 -6.962630 8.013296 -0.501703 0.079374 -0.132505 -0.000000 0.000000 0.000000 0.000000 0.000000 0.000000 0.000000 
-6.469558 16.996925 -2.090481 38.967166 79.861260 62.653828 -4.049909 0.868529 8.778316 -1.891272 1.197186 -0.913208 -6.548069 1.161016 1.278111 7.204194 6.344504 5.067104 -4.588780 -0.396546 2.785994 0.000000 0.000000 0.000000 -7.813886 0.950280 1.278302 -67.609429 -25.261392 11.136425 -3.259288 -19.277549 -0.015845 9.579821 -0.213627 -0.026342 -0.110237 0.103125 0.000000 0.000000 0.000000 0.000000 0.000000 0.000000 0.000000 17.460868 4.311165 -0.959813 71.103597 14.343540 -5.648000 2.031338 26.050669 -0.001184 -5.347142 7.708446 -0.370806 0.071385 -0.122819 -0.000000 0.000000 0.000000 0.000000 0.000000 0.000000 0.000000 
-6.308514 17.045921 -2.066887 38.721603 79.902957 62.483788 -3.678674 0.692083 8.850035 -1.807669 1.017697 -0.892148 -6.564799 0.983016 1.260319 7.315039 6.176648 5.073809 -4.602509 -0.396233 2.793807 0.000000 0.000000 0.000000 -7.591787 0.597288 1.248979 -67.880753 -25.620370 12.498621 -3.247318 -21.803982 -0.016331 9.416533 -0.415822 -0.043462 -0.120794 0.111673 0.000000 0.000000 0.000000 0.000000 0.000000 0.000000 0.000000 17.701663 4.044697 -0.850583 70.781846 13.680049 -5.229415 2.180046 25.406291 0.001405 -3.719423 7.399307 -0.248114 0.063079 -0.113268 -0.000000 0.000000 0.000000 0.000000 0.000000 0.000000 0.000000 
